<?xml version="1.0" encoding="UTF-8"?>
<svg xmlns="http://www.w3.org/2000/svg" width="980" height="540" viewBox="0 0 980 540" role="img" aria-labelledby="title desc">
  <title id="title">multi-HCA 2GiB foreground cap utilization</title>
  <desc id="desc">Utilization converts bandwidth_GBps_p50 to Gbps and divides by configured foreground cap; 400G bg1/bg10 sit near half of target.</desc>
  <style>
    .title { font: 700 18px "Segoe UI", Arial, sans-serif; fill: #1F2430; }
    .subtitle { font: 400 12px "Segoe UI", Arial, sans-serif; fill: #6F768A; }
    .tick { font: 400 11px "Consolas", "Segoe UI", monospace; fill: #6F768A; }
    .axis-label { font: 600 12px "Segoe UI", Arial, sans-serif; fill: #1F2430; }
    .legend { font: 500 12px "Segoe UI", Arial, sans-serif; fill: #1F2430; }
  </style>
  <rect width="980" height="540" fill="#FCFCFD" />
  <rect x="92" y="118" width="840" height="344" fill="#FFFFFF" />
  <text x="92" y="24" class="title">multi-HCA 2GiB foreground cap utilization</text>
  <text x="92" y="38" class="subtitle">Utilization converts bandwidth_GBps_p50 to Gbps and divides by configured foreground cap; 400G bg1/bg10 sit near half of target.</text>
  <line x1="92" x2="120" y1="78" y2="78" stroke="#2E4780" stroke-width="2.2"  />
<circle cx="106" cy="78" r="4.2" fill="#A3BEFA" stroke="#2E4780" stroke-width="1" />
<text x="128" y="82" class="legend">2x100</text>
<line x1="176.5" x2="204.5" y1="78" y2="78" stroke="#736422" stroke-width="2.2" stroke-dasharray="7 4" />
<circle cx="190.5" cy="78" r="4.2" fill="#FFE15B" stroke="#736422" stroke-width="1" />
<text x="212.5" y="82" class="legend">4x50</text>
<line x1="253.7" x2="281.7" y1="78" y2="78" stroke="#804126" stroke-width="2.2" stroke-dasharray="2 4" />
<circle cx="267.7" cy="78" r="4.2" fill="#F0986E" stroke="#804126" stroke-width="1" />
<text x="289.7" y="82" class="legend">2x200</text>
<line x1="338.2" x2="366.2" y1="78" y2="78" stroke="#386411" stroke-width="2.2" stroke-dasharray="9 3 2 3" />
<circle cx="352.2" cy="78" r="4.2" fill="#A3D576" stroke="#386411" stroke-width="1" />
<text x="374.2" y="82" class="legend">4x100</text>
  <line x1="92" x2="932" y1="462" y2="462" stroke="#E6E8F0" stroke-width="1" />
<text x="80" y="466" text-anchor="end" class="tick">0.0</text>
<line x1="92" x2="932" y1="305.6363636363636" y2="305.6363636363636" stroke="#E6E8F0" stroke-width="1" />
<text x="80" y="309.6363636363636" text-anchor="end" class="tick">50</text>
<line x1="92" x2="932" y1="149.2727272727273" y2="149.2727272727273" stroke="#E6E8F0" stroke-width="1" />
<text x="80" y="153.2727272727273" text-anchor="end" class="tick">100</text>
  <line x1="92" x2="92" y1="118" y2="462" stroke="#D7DBE7" stroke-width="1.2" />
  <line x1="92" x2="932" y1="462" y2="462" stroke="#D7DBE7" stroke-width="1.2" />
  <line x1="92" x2="92" y1="462" y2="468" stroke="#D7DBE7" />
<text x="92" y="490" text-anchor="middle" class="tick">bg1</text>
<line x1="372" x2="372" y1="462" y2="468" stroke="#D7DBE7" />
<text x="372" y="490" text-anchor="middle" class="tick">bg10</text>
<line x1="652" x2="652" y1="462" y2="468" stroke="#D7DBE7" />
<text x="652" y="490" text-anchor="middle" class="tick">bg50</text>
<line x1="932" x2="932" y1="462" y2="468" stroke="#D7DBE7" />
<text x="932" y="490" text-anchor="middle" class="tick">bg90</text>
  <text x="18" y="290" class="axis-label" transform="rotate(-90 18 290)" text-anchor="middle">cap utilization</text>
  <path d="M 92.00 149.49 L 372.00 149.47 L 652.00 149.39 L 932.00 149.30" fill="none" stroke="#2E4780" stroke-width="2.2"  />
<circle cx="92.00" cy="149.49" r="4.5" fill="#A3BEFA" stroke="#2E4780" stroke-width="1.2"><title>2x100 bg1: 99.929</title></circle>
<circle cx="372.00" cy="149.47" r="4.5" fill="#A3BEFA" stroke="#2E4780" stroke-width="1.2"><title>2x100 bg10: 99.937</title></circle>
<circle cx="652.00" cy="149.39" r="4.5" fill="#A3BEFA" stroke="#2E4780" stroke-width="1.2"><title>2x100 bg50: 99.962</title></circle>
<circle cx="932.00" cy="149.30" r="4.5" fill="#A3BEFA" stroke="#2E4780" stroke-width="1.2"><title>2x100 bg90: 99.991</title></circle>
<path d="M 92.00 149.48 L 372.00 149.75 L 652.00 149.43 L 932.00 149.30" fill="none" stroke="#736422" stroke-width="2.2" stroke-dasharray="7 4" />
<circle cx="92.00" cy="149.48" r="4.5" fill="#FFE15B" stroke="#736422" stroke-width="1.2"><title>4x50 bg1: 99.932</title></circle>
<circle cx="372.00" cy="149.75" r="4.5" fill="#FFE15B" stroke="#736422" stroke-width="1.2"><title>4x50 bg10: 99.848</title></circle>
<circle cx="652.00" cy="149.43" r="4.5" fill="#FFE15B" stroke="#736422" stroke-width="1.2"><title>4x50 bg50: 99.950</title></circle>
<circle cx="932.00" cy="149.30" r="4.5" fill="#FFE15B" stroke="#736422" stroke-width="1.2"><title>4x50 bg90: 99.991</title></circle>
<path d="M 92.00 300.79 L 372.00 301.34 L 652.00 244.25 L 932.00 149.32" fill="none" stroke="#804126" stroke-width="2.2" stroke-dasharray="2 4" />
<circle cx="92.00" cy="300.79" r="4.5" fill="#F0986E" stroke="#804126" stroke-width="1.2"><title>2x200 bg1: 51.549</title></circle>
<circle cx="372.00" cy="301.34" r="4.5" fill="#F0986E" stroke="#804126" stroke-width="1.2"><title>2x200 bg10: 51.375</title></circle>
<circle cx="652.00" cy="244.25" r="4.5" fill="#F0986E" stroke="#804126" stroke-width="1.2"><title>2x200 bg50: 69.631</title></circle>
<circle cx="932.00" cy="149.32" r="4.5" fill="#F0986E" stroke="#804126" stroke-width="1.2"><title>2x200 bg90: 99.984</title></circle>
<path d="M 92.00 301.10 L 372.00 300.13 L 652.00 243.27 L 932.00 149.33" fill="none" stroke="#386411" stroke-width="2.2" stroke-dasharray="9 3 2 3" />
<circle cx="92.00" cy="301.10" r="4.5" fill="#A3D576" stroke="#386411" stroke-width="1.2"><title>4x100 bg1: 51.452</title></circle>
<circle cx="372.00" cy="300.13" r="4.5" fill="#A3D576" stroke="#386411" stroke-width="1.2"><title>4x100 bg10: 51.762</title></circle>
<circle cx="652.00" cy="243.27" r="4.5" fill="#A3D576" stroke="#386411" stroke-width="1.2"><title>4x100 bg50: 69.944</title></circle>
<circle cx="932.00" cy="149.33" r="4.5" fill="#A3D576" stroke="#386411" stroke-width="1.2"><title>4x100 bg90: 99.982</title></circle>
</svg>
