<?xml version="1.0" encoding="UTF-8"?>
<svg xmlns="http://www.w3.org/2000/svg" width="1120" height="720" viewBox="0 0 1120 720" role="img">
<title>KV-transfer p50 latency: IPv6 400_4x100</title>
<desc>Four-shard aggregation; logical latency is the max shard latency per size and iteration.</desc>
<rect width="1120" height="720" fill="#FCFCFD" />
<rect x="90" y="124" width="994" height="504" fill="#FFFFFF" />
<line x1="90" y1="628.00" x2="1084" y2="628.00" stroke="#E6E8F0" stroke-width="1" />
<text x="78" y="632.00" text-anchor="end" font-family="Menlo, Consolas, monospace" font-size="12" fill="#6F768A">0</text>
<line x1="90" y1="502.00" x2="1084" y2="502.00" stroke="#E6E8F0" stroke-width="1" />
<text x="78" y="506.00" text-anchor="end" font-family="Menlo, Consolas, monospace" font-size="12" fill="#6F768A">10</text>
<line x1="90" y1="376.00" x2="1084" y2="376.00" stroke="#E6E8F0" stroke-width="1" />
<text x="78" y="380.00" text-anchor="end" font-family="Menlo, Consolas, monospace" font-size="12" fill="#6F768A">20</text>
<line x1="90" y1="250.00" x2="1084" y2="250.00" stroke="#E6E8F0" stroke-width="1" />
<text x="78" y="254.00" text-anchor="end" font-family="Menlo, Consolas, monospace" font-size="12" fill="#6F768A">30</text>
<line x1="90" y1="124.00" x2="1084" y2="124.00" stroke="#E6E8F0" stroke-width="1" />
<text x="78" y="128.00" text-anchor="end" font-family="Menlo, Consolas, monospace" font-size="12" fill="#6F768A">40</text>
<line x1="90.00" y1="124" x2="90.00" y2="628" stroke="#E6E8F0" stroke-width="1" stroke-dasharray="2 6" />
<text x="90.00" y="656" text-anchor="middle" font-family="Menlo, Consolas, monospace" font-size="12" fill="#6F768A">1MiB</text>
<line x1="180.36" y1="124" x2="180.36" y2="628" stroke="#E6E8F0" stroke-width="1" stroke-dasharray="2 6" />
<text x="180.36" y="656" text-anchor="middle" font-family="Menlo, Consolas, monospace" font-size="12" fill="#6F768A">2MiB</text>
<line x1="270.73" y1="124" x2="270.73" y2="628" stroke="#E6E8F0" stroke-width="1" stroke-dasharray="2 6" />
<text x="270.73" y="656" text-anchor="middle" font-family="Menlo, Consolas, monospace" font-size="12" fill="#6F768A">4MiB</text>
<line x1="361.09" y1="124" x2="361.09" y2="628" stroke="#E6E8F0" stroke-width="1" stroke-dasharray="2 6" />
<text x="361.09" y="656" text-anchor="middle" font-family="Menlo, Consolas, monospace" font-size="12" fill="#6F768A">8MiB</text>
<line x1="451.45" y1="124" x2="451.45" y2="628" stroke="#E6E8F0" stroke-width="1" stroke-dasharray="2 6" />
<text x="451.45" y="656" text-anchor="middle" font-family="Menlo, Consolas, monospace" font-size="12" fill="#6F768A">16MiB</text>
<line x1="541.82" y1="124" x2="541.82" y2="628" stroke="#E6E8F0" stroke-width="1" stroke-dasharray="2 6" />
<text x="541.82" y="656" text-anchor="middle" font-family="Menlo, Consolas, monospace" font-size="12" fill="#6F768A">32MiB</text>
<line x1="632.18" y1="124" x2="632.18" y2="628" stroke="#E6E8F0" stroke-width="1" stroke-dasharray="2 6" />
<text x="632.18" y="656" text-anchor="middle" font-family="Menlo, Consolas, monospace" font-size="12" fill="#6F768A">64MiB</text>
<line x1="722.55" y1="124" x2="722.55" y2="628" stroke="#E6E8F0" stroke-width="1" stroke-dasharray="2 6" />
<text x="722.55" y="656" text-anchor="middle" font-family="Menlo, Consolas, monospace" font-size="12" fill="#6F768A">128MiB</text>
<line x1="812.91" y1="124" x2="812.91" y2="628" stroke="#E6E8F0" stroke-width="1" stroke-dasharray="2 6" />
<text x="812.91" y="656" text-anchor="middle" font-family="Menlo, Consolas, monospace" font-size="12" fill="#6F768A">256MiB</text>
<line x1="903.27" y1="124" x2="903.27" y2="628" stroke="#E6E8F0" stroke-width="1" stroke-dasharray="2 6" />
<text x="903.27" y="656" text-anchor="middle" font-family="Menlo, Consolas, monospace" font-size="12" fill="#6F768A">512MiB</text>
<line x1="993.64" y1="124" x2="993.64" y2="628" stroke="#E6E8F0" stroke-width="1" stroke-dasharray="2 6" />
<text x="993.64" y="656" text-anchor="middle" font-family="Menlo, Consolas, monospace" font-size="12" fill="#6F768A">1GiB</text>
<line x1="1084.00" y1="124" x2="1084.00" y2="628" stroke="#E6E8F0" stroke-width="1" stroke-dasharray="2 6" />
<text x="1084.00" y="656" text-anchor="middle" font-family="Menlo, Consolas, monospace" font-size="12" fill="#6F768A">2GiB</text>
<line x1="90" y1="124" x2="90" y2="628" stroke="#D7DBE7" stroke-width="1.2" />
<line x1="90" y1="628" x2="1084" y2="628" stroke="#D7DBE7" stroke-width="1.2" />
<text x="90" y="32" text-anchor="start" font-family="Aptos, Inter, Segoe UI, Arial, sans-serif" font-size="19" font-weight="600" fill="#1F2430">KV-transfer p50 latency: IPv6 400_4x100</text>
<text x="90" y="58" text-anchor="start" font-family="Aptos, Inter, Segoe UI, Arial, sans-serif" font-size="13" fill="#6F768A">Four-shard aggregation; logical latency is the max shard latency per size and iteration.</text>
<line x1="90" y1="88" x2="124" y2="88" stroke="#71B436" stroke-width="2.2" stroke-dasharray="7 4" />
<rect x="104.00" y="85.00" width="6" height="6" fill="#71B436" stroke="#386411" stroke-width="1" />
<text x="134" y="92" font-family="Aptos, Inter, Segoe UI, Arial, sans-serif" font-size="12.5" fill="#1F2430">bg1</text>
<line x1="206" y1="88" x2="240" y2="88" stroke="#B8A037" stroke-width="2.2" stroke-dasharray="2 4" />
<polygon points="223.00,84.20 226.30,90.20 219.70,90.20" fill="#B8A037" stroke="#736422" stroke-width="1" />
<text x="250" y="92" font-family="Aptos, Inter, Segoe UI, Arial, sans-serif" font-size="12.5" fill="#1F2430">bg10</text>
<line x1="322" y1="88" x2="356" y2="88" stroke="#CC6F47" stroke-width="2.2" stroke-dasharray="9 3 2 3" />
<polygon points="339.00,84.20 342.80,88.00 339.00,91.80 335.20,88.00" fill="#CC6F47" stroke="#804126" stroke-width="1" />
<text x="366" y="92" font-family="Aptos, Inter, Segoe UI, Arial, sans-serif" font-size="12.5" fill="#1F2430">bg50</text>
<line x1="438" y1="88" x2="472" y2="88" stroke="#BD569B" stroke-width="2.2" stroke-dasharray="11 5" />
<circle cx="455.00" cy="88.00" r="3.4" fill="#FFFFFF" stroke="#BD569B" stroke-width="2" />
<text x="482" y="92" font-family="Aptos, Inter, Segoe UI, Arial, sans-serif" font-size="12.5" fill="#1F2430">bg90</text>
<polyline points="90.00,626.92 180.36,626.56 270.73,626.08 361.09,626.15 451.45,623.46 504.31,621.77 541.82,620.14 594.68,617.22 632.18,613.79 685.04,607.77 722.55,601.63 775.40,590.13 812.91,578.14 865.77,553.99 903.27,530.34 956.13,482.34 993.64,434.57 1022.73,386.00 1046.50,337.85 1066.59,292.20 1084.00,243.28" fill="none" stroke="#71B436" stroke-width="2.2" stroke-linecap="round" stroke-linejoin="round" stroke-dasharray="7 4" />
<rect x="87.00" y="623.92" width="6" height="6" fill="#71B436" stroke="#386411" stroke-width="1" />
<rect x="177.36" y="623.56" width="6" height="6" fill="#71B436" stroke="#386411" stroke-width="1" />
<rect x="267.73" y="623.08" width="6" height="6" fill="#71B436" stroke="#386411" stroke-width="1" />
<rect x="358.09" y="623.15" width="6" height="6" fill="#71B436" stroke="#386411" stroke-width="1" />
<rect x="448.45" y="620.46" width="6" height="6" fill="#71B436" stroke="#386411" stroke-width="1" />
<rect x="501.31" y="618.77" width="6" height="6" fill="#71B436" stroke="#386411" stroke-width="1" />
<rect x="538.82" y="617.14" width="6" height="6" fill="#71B436" stroke="#386411" stroke-width="1" />
<rect x="591.68" y="614.22" width="6" height="6" fill="#71B436" stroke="#386411" stroke-width="1" />
<rect x="629.18" y="610.79" width="6" height="6" fill="#71B436" stroke="#386411" stroke-width="1" />
<rect x="682.04" y="604.77" width="6" height="6" fill="#71B436" stroke="#386411" stroke-width="1" />
<rect x="719.55" y="598.63" width="6" height="6" fill="#71B436" stroke="#386411" stroke-width="1" />
<rect x="772.40" y="587.13" width="6" height="6" fill="#71B436" stroke="#386411" stroke-width="1" />
<rect x="809.91" y="575.14" width="6" height="6" fill="#71B436" stroke="#386411" stroke-width="1" />
<rect x="862.77" y="550.99" width="6" height="6" fill="#71B436" stroke="#386411" stroke-width="1" />
<rect x="900.27" y="527.34" width="6" height="6" fill="#71B436" stroke="#386411" stroke-width="1" />
<rect x="953.13" y="479.34" width="6" height="6" fill="#71B436" stroke="#386411" stroke-width="1" />
<rect x="990.64" y="431.57" width="6" height="6" fill="#71B436" stroke="#386411" stroke-width="1" />
<rect x="1019.73" y="383.00" width="6" height="6" fill="#71B436" stroke="#386411" stroke-width="1" />
<rect x="1043.50" y="334.85" width="6" height="6" fill="#71B436" stroke="#386411" stroke-width="1" />
<rect x="1063.59" y="289.20" width="6" height="6" fill="#71B436" stroke="#386411" stroke-width="1" />
<rect x="1081.00" y="240.28" width="6" height="6" fill="#71B436" stroke="#386411" stroke-width="1" />
<text x="1064.00" y="236.28" text-anchor="end" font-family="Menlo, Consolas, monospace" font-size="11.5" fill="#71B436">bg1 30.5ms</text>
<polyline points="90.00,627.14 180.36,626.61 270.73,626.11 361.09,625.05 451.45,623.50 504.31,621.85 541.82,620.14 594.68,616.84 632.18,613.83 685.04,607.43 722.55,601.33 775.40,589.52 812.91,577.53 865.77,554.06 903.27,529.91 956.13,481.35 993.64,433.56 1022.73,385.12 1046.50,338.97 1066.59,292.29 1084.00,244.62" fill="none" stroke="#B8A037" stroke-width="2.2" stroke-linecap="round" stroke-linejoin="round" stroke-dasharray="2 4" />
<polygon points="90.00,623.34 93.30,629.34 86.70,629.34" fill="#B8A037" stroke="#736422" stroke-width="1" />
<polygon points="180.36,622.81 183.66,628.81 177.06,628.81" fill="#B8A037" stroke="#736422" stroke-width="1" />
<polygon points="270.73,622.31 274.03,628.31 267.43,628.31" fill="#B8A037" stroke="#736422" stroke-width="1" />
<polygon points="361.09,621.25 364.39,627.25 357.79,627.25" fill="#B8A037" stroke="#736422" stroke-width="1" />
<polygon points="451.45,619.70 454.75,625.70 448.15,625.70" fill="#B8A037" stroke="#736422" stroke-width="1" />
<polygon points="504.31,618.05 507.61,624.05 501.01,624.05" fill="#B8A037" stroke="#736422" stroke-width="1" />
<polygon points="541.82,616.34 545.12,622.34 538.52,622.34" fill="#B8A037" stroke="#736422" stroke-width="1" />
<polygon points="594.68,613.04 597.98,619.04 591.38,619.04" fill="#B8A037" stroke="#736422" stroke-width="1" />
<polygon points="632.18,610.03 635.48,616.03 628.88,616.03" fill="#B8A037" stroke="#736422" stroke-width="1" />
<polygon points="685.04,603.63 688.34,609.63 681.74,609.63" fill="#B8A037" stroke="#736422" stroke-width="1" />
<polygon points="722.55,597.53 725.85,603.53 719.25,603.53" fill="#B8A037" stroke="#736422" stroke-width="1" />
<polygon points="775.40,585.72 778.70,591.72 772.10,591.72" fill="#B8A037" stroke="#736422" stroke-width="1" />
<polygon points="812.91,573.73 816.21,579.73 809.61,579.73" fill="#B8A037" stroke="#736422" stroke-width="1" />
<polygon points="865.77,550.26 869.07,556.26 862.47,556.26" fill="#B8A037" stroke="#736422" stroke-width="1" />
<polygon points="903.27,526.11 906.57,532.11 899.97,532.11" fill="#B8A037" stroke="#736422" stroke-width="1" />
<polygon points="956.13,477.55 959.43,483.55 952.83,483.55" fill="#B8A037" stroke="#736422" stroke-width="1" />
<polygon points="993.64,429.76 996.94,435.76 990.34,435.76" fill="#B8A037" stroke="#736422" stroke-width="1" />
<polygon points="1022.73,381.32 1026.03,387.32 1019.43,387.32" fill="#B8A037" stroke="#736422" stroke-width="1" />
<polygon points="1046.50,335.17 1049.80,341.17 1043.20,341.17" fill="#B8A037" stroke="#736422" stroke-width="1" />
<polygon points="1066.59,288.49 1069.89,294.49 1063.29,294.49" fill="#B8A037" stroke="#736422" stroke-width="1" />
<polygon points="1084.00,240.82 1087.30,246.82 1080.70,246.82" fill="#B8A037" stroke="#736422" stroke-width="1" />
<text x="1064.00" y="237.62" text-anchor="end" font-family="Menlo, Consolas, monospace" font-size="11.5" fill="#B8A037">bg10 30.4ms</text>
<polyline points="90.00,626.87 180.36,626.56 270.73,626.04 361.09,624.95 451.45,623.26 504.31,621.49 541.82,619.94 594.68,616.82 632.18,613.52 685.04,607.42 722.55,601.23 775.40,590.26 812.91,578.22 865.77,554.56 903.27,530.74 956.13,482.30 993.64,434.53 1022.73,386.64 1046.50,337.77 1066.59,291.39 1084.00,244.83" fill="none" stroke="#CC6F47" stroke-width="2.2" stroke-linecap="round" stroke-linejoin="round" stroke-dasharray="9 3 2 3" />
<polygon points="90.00,623.07 93.80,626.87 90.00,630.67 86.20,626.87" fill="#CC6F47" stroke="#804126" stroke-width="1" />
<polygon points="180.36,622.76 184.16,626.56 180.36,630.36 176.56,626.56" fill="#CC6F47" stroke="#804126" stroke-width="1" />
<polygon points="270.73,622.24 274.53,626.04 270.73,629.84 266.93,626.04" fill="#CC6F47" stroke="#804126" stroke-width="1" />
<polygon points="361.09,621.15 364.89,624.95 361.09,628.75 357.29,624.95" fill="#CC6F47" stroke="#804126" stroke-width="1" />
<polygon points="451.45,619.46 455.25,623.26 451.45,627.06 447.65,623.26" fill="#CC6F47" stroke="#804126" stroke-width="1" />
<polygon points="504.31,617.69 508.11,621.49 504.31,625.29 500.51,621.49" fill="#CC6F47" stroke="#804126" stroke-width="1" />
<polygon points="541.82,616.14 545.62,619.94 541.82,623.74 538.02,619.94" fill="#CC6F47" stroke="#804126" stroke-width="1" />
<polygon points="594.68,613.02 598.48,616.82 594.68,620.62 590.88,616.82" fill="#CC6F47" stroke="#804126" stroke-width="1" />
<polygon points="632.18,609.72 635.98,613.52 632.18,617.32 628.38,613.52" fill="#CC6F47" stroke="#804126" stroke-width="1" />
<polygon points="685.04,603.62 688.84,607.42 685.04,611.22 681.24,607.42" fill="#CC6F47" stroke="#804126" stroke-width="1" />
<polygon points="722.55,597.43 726.35,601.23 722.55,605.03 718.75,601.23" fill="#CC6F47" stroke="#804126" stroke-width="1" />
<polygon points="775.40,586.46 779.20,590.26 775.40,594.06 771.60,590.26" fill="#CC6F47" stroke="#804126" stroke-width="1" />
<polygon points="812.91,574.42 816.71,578.22 812.91,582.02 809.11,578.22" fill="#CC6F47" stroke="#804126" stroke-width="1" />
<polygon points="865.77,550.76 869.57,554.56 865.77,558.36 861.97,554.56" fill="#CC6F47" stroke="#804126" stroke-width="1" />
<polygon points="903.27,526.94 907.07,530.74 903.27,534.54 899.47,530.74" fill="#CC6F47" stroke="#804126" stroke-width="1" />
<polygon points="956.13,478.50 959.93,482.30 956.13,486.10 952.33,482.30" fill="#CC6F47" stroke="#804126" stroke-width="1" />
<polygon points="993.64,430.73 997.44,434.53 993.64,438.33 989.84,434.53" fill="#CC6F47" stroke="#804126" stroke-width="1" />
<polygon points="1022.73,382.84 1026.53,386.64 1022.73,390.44 1018.93,386.64" fill="#CC6F47" stroke="#804126" stroke-width="1" />
<polygon points="1046.50,333.97 1050.30,337.77 1046.50,341.57 1042.70,337.77" fill="#CC6F47" stroke="#804126" stroke-width="1" />
<polygon points="1066.59,287.59 1070.39,291.39 1066.59,295.19 1062.79,291.39" fill="#CC6F47" stroke="#804126" stroke-width="1" />
<polygon points="1084.00,241.03 1087.80,244.83 1084.00,248.63 1080.20,244.83" fill="#CC6F47" stroke="#804126" stroke-width="1" />
<text x="1064.00" y="237.83" text-anchor="end" font-family="Menlo, Consolas, monospace" font-size="11.5" fill="#CC6F47">bg50 30.4ms</text>
<polyline points="90.00,626.90 180.36,626.54 270.73,626.10 361.09,625.14 451.45,623.47 504.31,621.94 541.82,620.31 594.68,617.35 632.18,614.31 685.04,607.97 722.55,602.15 775.40,590.66 812.91,578.63 865.77,553.92 903.27,529.58 956.13,483.03 993.64,433.90 1022.73,385.90 1046.50,339.48 1066.59,293.26 1084.00,246.05" fill="none" stroke="#BD569B" stroke-width="2.2" stroke-linecap="round" stroke-linejoin="round" stroke-dasharray="11 5" />
<circle cx="90.00" cy="626.90" r="3.4" fill="#FFFFFF" stroke="#BD569B" stroke-width="2" />
<circle cx="180.36" cy="626.54" r="3.4" fill="#FFFFFF" stroke="#BD569B" stroke-width="2" />
<circle cx="270.73" cy="626.10" r="3.4" fill="#FFFFFF" stroke="#BD569B" stroke-width="2" />
<circle cx="361.09" cy="625.14" r="3.4" fill="#FFFFFF" stroke="#BD569B" stroke-width="2" />
<circle cx="451.45" cy="623.47" r="3.4" fill="#FFFFFF" stroke="#BD569B" stroke-width="2" />
<circle cx="504.31" cy="621.94" r="3.4" fill="#FFFFFF" stroke="#BD569B" stroke-width="2" />
<circle cx="541.82" cy="620.31" r="3.4" fill="#FFFFFF" stroke="#BD569B" stroke-width="2" />
<circle cx="594.68" cy="617.35" r="3.4" fill="#FFFFFF" stroke="#BD569B" stroke-width="2" />
<circle cx="632.18" cy="614.31" r="3.4" fill="#FFFFFF" stroke="#BD569B" stroke-width="2" />
<circle cx="685.04" cy="607.97" r="3.4" fill="#FFFFFF" stroke="#BD569B" stroke-width="2" />
<circle cx="722.55" cy="602.15" r="3.4" fill="#FFFFFF" stroke="#BD569B" stroke-width="2" />
<circle cx="775.40" cy="590.66" r="3.4" fill="#FFFFFF" stroke="#BD569B" stroke-width="2" />
<circle cx="812.91" cy="578.63" r="3.4" fill="#FFFFFF" stroke="#BD569B" stroke-width="2" />
<circle cx="865.77" cy="553.92" r="3.4" fill="#FFFFFF" stroke="#BD569B" stroke-width="2" />
<circle cx="903.27" cy="529.58" r="3.4" fill="#FFFFFF" stroke="#BD569B" stroke-width="2" />
<circle cx="956.13" cy="483.03" r="3.4" fill="#FFFFFF" stroke="#BD569B" stroke-width="2" />
<circle cx="993.64" cy="433.90" r="3.4" fill="#FFFFFF" stroke="#BD569B" stroke-width="2" />
<circle cx="1022.73" cy="385.90" r="3.4" fill="#FFFFFF" stroke="#BD569B" stroke-width="2" />
<circle cx="1046.50" cy="339.48" r="3.4" fill="#FFFFFF" stroke="#BD569B" stroke-width="2" />
<circle cx="1066.59" cy="293.26" r="3.4" fill="#FFFFFF" stroke="#BD569B" stroke-width="2" />
<circle cx="1084.00" cy="246.05" r="3.4" fill="#FFFFFF" stroke="#BD569B" stroke-width="2" />
<text x="1064.00" y="239.05" text-anchor="end" font-family="Menlo, Consolas, monospace" font-size="11.5" fill="#BD569B">bg90 30.3ms</text>
<text x="587.00" y="696" text-anchor="middle" font-family="Aptos, Inter, Segoe UI, Arial, sans-serif" font-size="13" fill="#1F2430">Data size, log2 scale</text>
<text x="24" y="376.00" text-anchor="middle" transform="rotate(-90 24 376.00)" font-family="Aptos, Inter, Segoe UI, Arial, sans-serif" font-size="13" fill="#1F2430">p50 latency (ms)</text>
</svg>