<?xml version="1.0" encoding="UTF-8"?>
<svg xmlns="http://www.w3.org/2000/svg" width="1120" height="720" viewBox="0 0 1120 720" role="img">
<title>KV-transfer p50 latency: RDMA 200G mlx5_0</title>
<desc>Foreground 099 -&gt; 102, p50 latency in ms; colors show background traffic level.</desc>
<rect width="1120" height="720" fill="#FCFCFD" />
<rect x="90" y="124" width="994" height="504" fill="#FFFFFF" />
<line x1="90" y1="628.00" x2="1084" y2="628.00" stroke="#E6E8F0" stroke-width="1" />
<text x="78" y="632.00" text-anchor="end" font-family="Menlo, Consolas, monospace" font-size="12" fill="#6F768A">0</text>
<line x1="90" y1="502.00" x2="1084" y2="502.00" stroke="#E6E8F0" stroke-width="1" />
<text x="78" y="506.00" text-anchor="end" font-family="Menlo, Consolas, monospace" font-size="12" fill="#6F768A">200</text>
<line x1="90" y1="376.00" x2="1084" y2="376.00" stroke="#E6E8F0" stroke-width="1" />
<text x="78" y="380.00" text-anchor="end" font-family="Menlo, Consolas, monospace" font-size="12" fill="#6F768A">400</text>
<line x1="90" y1="250.00" x2="1084" y2="250.00" stroke="#E6E8F0" stroke-width="1" />
<text x="78" y="254.00" text-anchor="end" font-family="Menlo, Consolas, monospace" font-size="12" fill="#6F768A">600</text>
<line x1="90" y1="124.00" x2="1084" y2="124.00" stroke="#E6E8F0" stroke-width="1" />
<text x="78" y="128.00" text-anchor="end" font-family="Menlo, Consolas, monospace" font-size="12" fill="#6F768A">800</text>
<line x1="90.00" y1="124" x2="90.00" y2="628" stroke="#E6E8F0" stroke-width="1" stroke-dasharray="2 6" />
<text x="90.00" y="656" text-anchor="middle" font-family="Menlo, Consolas, monospace" font-size="12" fill="#6F768A">1MiB</text>
<line x1="180.36" y1="124" x2="180.36" y2="628" stroke="#E6E8F0" stroke-width="1" stroke-dasharray="2 6" />
<text x="180.36" y="656" text-anchor="middle" font-family="Menlo, Consolas, monospace" font-size="12" fill="#6F768A">2MiB</text>
<line x1="270.73" y1="124" x2="270.73" y2="628" stroke="#E6E8F0" stroke-width="1" stroke-dasharray="2 6" />
<text x="270.73" y="656" text-anchor="middle" font-family="Menlo, Consolas, monospace" font-size="12" fill="#6F768A">4MiB</text>
<line x1="361.09" y1="124" x2="361.09" y2="628" stroke="#E6E8F0" stroke-width="1" stroke-dasharray="2 6" />
<text x="361.09" y="656" text-anchor="middle" font-family="Menlo, Consolas, monospace" font-size="12" fill="#6F768A">8MiB</text>
<line x1="451.45" y1="124" x2="451.45" y2="628" stroke="#E6E8F0" stroke-width="1" stroke-dasharray="2 6" />
<text x="451.45" y="656" text-anchor="middle" font-family="Menlo, Consolas, monospace" font-size="12" fill="#6F768A">16MiB</text>
<line x1="541.82" y1="124" x2="541.82" y2="628" stroke="#E6E8F0" stroke-width="1" stroke-dasharray="2 6" />
<text x="541.82" y="656" text-anchor="middle" font-family="Menlo, Consolas, monospace" font-size="12" fill="#6F768A">32MiB</text>
<line x1="632.18" y1="124" x2="632.18" y2="628" stroke="#E6E8F0" stroke-width="1" stroke-dasharray="2 6" />
<text x="632.18" y="656" text-anchor="middle" font-family="Menlo, Consolas, monospace" font-size="12" fill="#6F768A">64MiB</text>
<line x1="722.55" y1="124" x2="722.55" y2="628" stroke="#E6E8F0" stroke-width="1" stroke-dasharray="2 6" />
<text x="722.55" y="656" text-anchor="middle" font-family="Menlo, Consolas, monospace" font-size="12" fill="#6F768A">128MiB</text>
<line x1="812.91" y1="124" x2="812.91" y2="628" stroke="#E6E8F0" stroke-width="1" stroke-dasharray="2 6" />
<text x="812.91" y="656" text-anchor="middle" font-family="Menlo, Consolas, monospace" font-size="12" fill="#6F768A">256MiB</text>
<line x1="903.27" y1="124" x2="903.27" y2="628" stroke="#E6E8F0" stroke-width="1" stroke-dasharray="2 6" />
<text x="903.27" y="656" text-anchor="middle" font-family="Menlo, Consolas, monospace" font-size="12" fill="#6F768A">512MiB</text>
<line x1="993.64" y1="124" x2="993.64" y2="628" stroke="#E6E8F0" stroke-width="1" stroke-dasharray="2 6" />
<text x="993.64" y="656" text-anchor="middle" font-family="Menlo, Consolas, monospace" font-size="12" fill="#6F768A">1GiB</text>
<line x1="1084.00" y1="124" x2="1084.00" y2="628" stroke="#E6E8F0" stroke-width="1" stroke-dasharray="2 6" />
<text x="1084.00" y="656" text-anchor="middle" font-family="Menlo, Consolas, monospace" font-size="12" fill="#6F768A">2GiB</text>
<line x1="90" y1="124" x2="90" y2="628" stroke="#D7DBE7" stroke-width="1.2" />
<line x1="90" y1="628" x2="1084" y2="628" stroke="#D7DBE7" stroke-width="1.2" />
<text x="90" y="32" text-anchor="start" font-family="Aptos, Inter, Segoe UI, Arial, sans-serif" font-size="19" font-weight="600" fill="#1F2430">KV-transfer p50 latency: RDMA 200G mlx5_0</text>
<text x="90" y="58" text-anchor="start" font-family="Aptos, Inter, Segoe UI, Arial, sans-serif" font-size="13" fill="#6F768A">Foreground 099 -&gt; 102, p50 latency in ms; colors show background traffic level.</text>
<line x1="90" y1="88" x2="124" y2="88" stroke="#5477C4" stroke-width="2.2" />
<circle cx="107.00" cy="88.00" r="3.2" fill="#5477C4" stroke="#2E4780" stroke-width="1" />
<text x="134" y="92" font-family="Aptos, Inter, Segoe UI, Arial, sans-serif" font-size="12.5" fill="#1F2430">bg0 baseline</text>
<line x1="240" y1="88" x2="274" y2="88" stroke="#71B436" stroke-width="2.2" stroke-dasharray="7 4" />
<rect x="254.00" y="85.00" width="6" height="6" fill="#71B436" stroke="#386411" stroke-width="1" />
<text x="284" y="92" font-family="Aptos, Inter, Segoe UI, Arial, sans-serif" font-size="12.5" fill="#1F2430">bg1</text>
<line x1="356" y1="88" x2="390" y2="88" stroke="#B8A037" stroke-width="2.2" stroke-dasharray="2 4" />
<polygon points="373.00,84.20 376.30,90.20 369.70,90.20" fill="#B8A037" stroke="#736422" stroke-width="1" />
<text x="400" y="92" font-family="Aptos, Inter, Segoe UI, Arial, sans-serif" font-size="12.5" fill="#1F2430">bg10</text>
<line x1="472" y1="88" x2="506" y2="88" stroke="#CC6F47" stroke-width="2.2" stroke-dasharray="9 3 2 3" />
<polygon points="489.00,84.20 492.80,88.00 489.00,91.80 485.20,88.00" fill="#CC6F47" stroke="#804126" stroke-width="1" />
<text x="516" y="92" font-family="Aptos, Inter, Segoe UI, Arial, sans-serif" font-size="12.5" fill="#1F2430">bg50</text>
<line x1="588" y1="88" x2="622" y2="88" stroke="#BD569B" stroke-width="2.2" stroke-dasharray="11 5" />
<circle cx="605.00" cy="88.00" r="3.4" fill="#FFFFFF" stroke="#BD569B" stroke-width="2" />
<text x="632" y="92" font-family="Aptos, Inter, Segoe UI, Arial, sans-serif" font-size="12.5" fill="#1F2430">bg90</text>
<polyline points="90.00,627.95 180.36,627.91 270.73,627.84 361.09,627.70 451.45,627.41 541.82,626.86 632.18,625.97 722.55,623.99 812.91,620.11 903.27,612.44 993.64,596.18 1084.00,565.11" fill="none" stroke="#5477C4" stroke-width="2.2" stroke-linecap="round" stroke-linejoin="round" />
<circle cx="90.00" cy="627.95" r="3.2" fill="#5477C4" stroke="#2E4780" stroke-width="1" />
<circle cx="180.36" cy="627.91" r="3.2" fill="#5477C4" stroke="#2E4780" stroke-width="1" />
<circle cx="270.73" cy="627.84" r="3.2" fill="#5477C4" stroke="#2E4780" stroke-width="1" />
<circle cx="361.09" cy="627.70" r="3.2" fill="#5477C4" stroke="#2E4780" stroke-width="1" />
<circle cx="451.45" cy="627.41" r="3.2" fill="#5477C4" stroke="#2E4780" stroke-width="1" />
<circle cx="541.82" cy="626.86" r="3.2" fill="#5477C4" stroke="#2E4780" stroke-width="1" />
<circle cx="632.18" cy="625.97" r="3.2" fill="#5477C4" stroke="#2E4780" stroke-width="1" />
<circle cx="722.55" cy="623.99" r="3.2" fill="#5477C4" stroke="#2E4780" stroke-width="1" />
<circle cx="812.91" cy="620.11" r="3.2" fill="#5477C4" stroke="#2E4780" stroke-width="1" />
<circle cx="903.27" cy="612.44" r="3.2" fill="#5477C4" stroke="#2E4780" stroke-width="1" />
<circle cx="993.64" cy="596.18" r="3.2" fill="#5477C4" stroke="#2E4780" stroke-width="1" />
<circle cx="1084.00" cy="565.11" r="3.2" fill="#5477C4" stroke="#2E4780" stroke-width="1" />
<text x="1064.00" y="558.11" text-anchor="end" font-family="Menlo, Consolas, monospace" font-size="11.5" fill="#5477C4">bg0 baseline 99.8ms</text>
<polyline points="90.00,627.92 180.36,627.85 270.73,627.73 361.09,627.49 451.45,627.00 541.82,626.12 632.18,624.57 722.55,621.92 812.91,599.98 903.27,576.61 993.64,531.50 1084.00,460.72" fill="none" stroke="#71B436" stroke-width="2.2" stroke-linecap="round" stroke-linejoin="round" stroke-dasharray="7 4" />
<rect x="87.00" y="624.92" width="6" height="6" fill="#71B436" stroke="#386411" stroke-width="1" />
<rect x="177.36" y="624.85" width="6" height="6" fill="#71B436" stroke="#386411" stroke-width="1" />
<rect x="267.73" y="624.73" width="6" height="6" fill="#71B436" stroke="#386411" stroke-width="1" />
<rect x="358.09" y="624.49" width="6" height="6" fill="#71B436" stroke="#386411" stroke-width="1" />
<rect x="448.45" y="624.00" width="6" height="6" fill="#71B436" stroke="#386411" stroke-width="1" />
<rect x="538.82" y="623.12" width="6" height="6" fill="#71B436" stroke="#386411" stroke-width="1" />
<rect x="629.18" y="621.57" width="6" height="6" fill="#71B436" stroke="#386411" stroke-width="1" />
<rect x="719.55" y="618.92" width="6" height="6" fill="#71B436" stroke="#386411" stroke-width="1" />
<rect x="809.91" y="596.98" width="6" height="6" fill="#71B436" stroke="#386411" stroke-width="1" />
<rect x="900.27" y="573.61" width="6" height="6" fill="#71B436" stroke="#386411" stroke-width="1" />
<rect x="990.64" y="528.50" width="6" height="6" fill="#71B436" stroke="#386411" stroke-width="1" />
<rect x="1081.00" y="457.72" width="6" height="6" fill="#71B436" stroke="#386411" stroke-width="1" />
<text x="1064.00" y="453.72" text-anchor="end" font-family="Menlo, Consolas, monospace" font-size="11.5" fill="#71B436">bg1 265.5ms</text>
<polyline points="90.00,627.95 180.36,627.91 270.73,627.84 361.09,627.70 451.45,627.41 541.82,626.86 632.18,621.42 722.55,616.63 812.91,603.98 903.27,575.01 993.64,514.68 1084.00,390.81" fill="none" stroke="#B8A037" stroke-width="2.2" stroke-linecap="round" stroke-linejoin="round" stroke-dasharray="2 4" />
<polygon points="90.00,624.15 93.30,630.15 86.70,630.15" fill="#B8A037" stroke="#736422" stroke-width="1" />
<polygon points="180.36,624.11 183.66,630.11 177.06,630.11" fill="#B8A037" stroke="#736422" stroke-width="1" />
<polygon points="270.73,624.04 274.03,630.04 267.43,630.04" fill="#B8A037" stroke="#736422" stroke-width="1" />
<polygon points="361.09,623.90 364.39,629.90 357.79,629.90" fill="#B8A037" stroke="#736422" stroke-width="1" />
<polygon points="451.45,623.61 454.75,629.61 448.15,629.61" fill="#B8A037" stroke="#736422" stroke-width="1" />
<polygon points="541.82,623.06 545.12,629.06 538.52,629.06" fill="#B8A037" stroke="#736422" stroke-width="1" />
<polygon points="632.18,617.62 635.48,623.62 628.88,623.62" fill="#B8A037" stroke="#736422" stroke-width="1" />
<polygon points="722.55,612.83 725.85,618.83 719.25,618.83" fill="#B8A037" stroke="#736422" stroke-width="1" />
<polygon points="812.91,600.18 816.21,606.18 809.61,606.18" fill="#B8A037" stroke="#736422" stroke-width="1" />
<polygon points="903.27,571.21 906.57,577.21 899.97,577.21" fill="#B8A037" stroke="#736422" stroke-width="1" />
<polygon points="993.64,510.88 996.94,516.88 990.34,516.88" fill="#B8A037" stroke="#736422" stroke-width="1" />
<polygon points="1084.00,387.01 1087.30,393.01 1080.70,393.01" fill="#B8A037" stroke="#736422" stroke-width="1" />
<text x="1064.00" y="383.81" text-anchor="end" font-family="Menlo, Consolas, monospace" font-size="11.5" fill="#B8A037">bg10 376.5ms</text>
<polyline points="90.00,627.88 180.36,627.91 270.73,627.77 361.09,627.53 451.45,626.85 541.82,625.47 632.18,622.11 722.55,612.89 812.91,578.71 903.27,544.40 993.64,450.30 1084.00,257.75" fill="none" stroke="#CC6F47" stroke-width="2.2" stroke-linecap="round" stroke-linejoin="round" stroke-dasharray="9 3 2 3" />
<polygon points="90.00,624.08 93.80,627.88 90.00,631.68 86.20,627.88" fill="#CC6F47" stroke="#804126" stroke-width="1" />
<polygon points="180.36,624.11 184.16,627.91 180.36,631.71 176.56,627.91" fill="#CC6F47" stroke="#804126" stroke-width="1" />
<polygon points="270.73,623.97 274.53,627.77 270.73,631.57 266.93,627.77" fill="#CC6F47" stroke="#804126" stroke-width="1" />
<polygon points="361.09,623.73 364.89,627.53 361.09,631.33 357.29,627.53" fill="#CC6F47" stroke="#804126" stroke-width="1" />
<polygon points="451.45,623.05 455.25,626.85 451.45,630.65 447.65,626.85" fill="#CC6F47" stroke="#804126" stroke-width="1" />
<polygon points="541.82,621.67 545.62,625.47 541.82,629.27 538.02,625.47" fill="#CC6F47" stroke="#804126" stroke-width="1" />
<polygon points="632.18,618.31 635.98,622.11 632.18,625.91 628.38,622.11" fill="#CC6F47" stroke="#804126" stroke-width="1" />
<polygon points="722.55,609.09 726.35,612.89 722.55,616.69 718.75,612.89" fill="#CC6F47" stroke="#804126" stroke-width="1" />
<polygon points="812.91,574.91 816.71,578.71 812.91,582.51 809.11,578.71" fill="#CC6F47" stroke="#804126" stroke-width="1" />
<polygon points="903.27,540.60 907.07,544.40 903.27,548.20 899.47,544.40" fill="#CC6F47" stroke="#804126" stroke-width="1" />
<polygon points="993.64,446.50 997.44,450.30 993.64,454.10 989.84,450.30" fill="#CC6F47" stroke="#804126" stroke-width="1" />
<polygon points="1084.00,253.95 1087.80,257.75 1084.00,261.55 1080.20,257.75" fill="#CC6F47" stroke="#804126" stroke-width="1" />
<text x="1064.00" y="250.75" text-anchor="end" font-family="Menlo, Consolas, monospace" font-size="11.5" fill="#CC6F47">bg50 587.7ms</text>
<polyline points="90.00,627.95 180.36,627.85 270.73,627.68 361.09,627.12 451.45,626.17 541.82,623.78 632.18,617.49 722.55,591.44 812.91,583.00 903.27,545.54 993.64,464.05 1084.00,263.33" fill="none" stroke="#BD569B" stroke-width="2.2" stroke-linecap="round" stroke-linejoin="round" stroke-dasharray="11 5" />
<circle cx="90.00" cy="627.95" r="3.4" fill="#FFFFFF" stroke="#BD569B" stroke-width="2" />
<circle cx="180.36" cy="627.85" r="3.4" fill="#FFFFFF" stroke="#BD569B" stroke-width="2" />
<circle cx="270.73" cy="627.68" r="3.4" fill="#FFFFFF" stroke="#BD569B" stroke-width="2" />
<circle cx="361.09" cy="627.12" r="3.4" fill="#FFFFFF" stroke="#BD569B" stroke-width="2" />
<circle cx="451.45" cy="626.17" r="3.4" fill="#FFFFFF" stroke="#BD569B" stroke-width="2" />
<circle cx="541.82" cy="623.78" r="3.4" fill="#FFFFFF" stroke="#BD569B" stroke-width="2" />
<circle cx="632.18" cy="617.49" r="3.4" fill="#FFFFFF" stroke="#BD569B" stroke-width="2" />
<circle cx="722.55" cy="591.44" r="3.4" fill="#FFFFFF" stroke="#BD569B" stroke-width="2" />
<circle cx="812.91" cy="583.00" r="3.4" fill="#FFFFFF" stroke="#BD569B" stroke-width="2" />
<circle cx="903.27" cy="545.54" r="3.4" fill="#FFFFFF" stroke="#BD569B" stroke-width="2" />
<circle cx="993.64" cy="464.05" r="3.4" fill="#FFFFFF" stroke="#BD569B" stroke-width="2" />
<circle cx="1084.00" cy="263.33" r="3.4" fill="#FFFFFF" stroke="#BD569B" stroke-width="2" />
<text x="1064.00" y="256.33" text-anchor="end" font-family="Menlo, Consolas, monospace" font-size="11.5" fill="#BD569B">bg90 578.8ms</text>
<text x="587.00" y="696" text-anchor="middle" font-family="Aptos, Inter, Segoe UI, Arial, sans-serif" font-size="13" fill="#1F2430">Data size, log2 scale</text>
<text x="24" y="376.00" text-anchor="middle" transform="rotate(-90 24 376.00)" font-family="Aptos, Inter, Segoe UI, Arial, sans-serif" font-size="13" fill="#1F2430">p50 latency (ms)</text>
</svg>