<svg width="940" height="525" viewBox="0 0 940 525" fill="none" xmlns="http://www.w3.org/2000/svg" role="img" aria-label="LTX logo">
  <rect width="940" height="525" rx="28" fill="transparent"/>
  <g transform="translate(251 169) scale(5.86)" fill="#111111">
    <path d="M0 30.0087V7.50057C0 7.09765 0.154254 6.69973 0.460162 6.43869C0.708822 6.22729 0.987356 6.12029 1.29316 6.12029H8.2339C8.63671 6.12029 9.03463 6.26205 9.31316 6.55308C9.53944 6.79174 9.65133 7.07777 9.65133 7.41345V23.198C9.65133 23.6108 9.98462 23.944 10.3974 23.944H21.4638C21.8666 23.944 22.267 24.0858 22.5431 24.3767C22.7668 24.6155 22.8812 24.9015 22.8812 25.2372V30.5856C22.8812 31.0457 22.6823 31.4982 22.3018 31.7569C22.078 31.9086 21.8244 31.9832 21.5383 31.9832L1.99199 31.9956C0.890348 31.9981 0 31.1078 0 30.0087Z"/>
    <path d="M36.5888 31.9926C34.4062 31.9876 32.492 31.6543 30.8413 30.9878C29.1906 30.3214 27.9104 29.2346 26.9981 27.7227C26.0856 26.2132 25.6333 24.2137 25.6382 21.7269L25.6532 13.7194L21.7016 13.7119C21.3486 13.7119 21.0528 13.5876 20.8116 13.3365C20.5705 13.0853 20.4512 12.7819 20.4537 12.4164L20.4636 7.39299C20.4636 7.02744 20.5854 6.72154 20.8265 6.47288C21.0677 6.22422 21.3635 6.09983 21.7165 6.10233L25.6681 6.10983L25.6779 1.29066C25.6779 0.925114 25.7998 0.619208 26.041 0.370548C26.2821 0.121887 26.5779 0 26.9309 0L33.9065 0.0124913C34.2595 0.0124913 34.5554 0.136772 34.7965 0.387931C35.0376 0.639089 35.1569 0.944995 35.1545 1.30805L35.1445 6.12721L41.2078 6.13959C41.5608 6.13959 41.8566 6.26398 42.0977 6.51514C42.3389 6.76629 42.4582 7.0722 42.4557 7.43525L42.4458 12.4586C42.4458 12.8242 42.3239 13.1301 42.0829 13.3787C41.8417 13.6274 41.5434 13.7518 41.1928 13.7493L35.1296 13.7368L35.1171 20.8988C35.1171 21.8613 35.3061 22.6148 35.6914 23.1618C36.0767 23.7089 36.6833 23.985 37.5186 23.985L41.5608 23.9925C41.9138 23.9925 42.2096 24.1168 42.4507 24.368C42.6919 24.6192 42.8113 24.9251 42.8088 25.2881L42.7988 30.7093C42.7988 31.075 42.677 31.3808 42.4358 31.6294C42.1947 31.8782 41.8963 32.0025 41.5459 32L36.5913 31.9901L36.5888 31.9926Z"/>
    <path d="M47.5486 31.9851C47.2282 31.9851 46.965 31.8682 46.7589 31.6369C46.5503 31.4056 46.4485 31.1395 46.4485 30.841C46.4485 30.7416 46.4634 30.6248 46.4957 30.4929C46.5279 30.3611 46.5926 30.2268 46.6869 30.0951L54.3506 18.9342C54.4648 18.7675 54.4673 18.5463 54.3556 18.3771L47.4543 8.01457C47.3896 7.91517 47.335 7.79827 47.2854 7.6664C47.2382 7.53463 47.2133 7.40036 47.2133 7.26859C47.2133 6.97017 47.3251 6.70403 47.5486 6.47275C47.7722 6.24147 48.0279 6.12458 48.316 6.12458H55.6444C56.0914 6.12458 56.4267 6.23158 56.6501 6.44787C56.8737 6.66426 57.0327 6.85328 57.1295 7.01993L60.3082 11.8169C60.5043 12.1128 60.939 12.1128 61.1352 11.8169L64.3139 7.01993C64.4405 6.85328 64.6094 6.66426 64.8156 6.44787C65.0216 6.23158 65.3494 6.12458 65.7964 6.12458H72.7896C73.0778 6.12458 73.331 6.24147 73.557 6.47275C73.7805 6.70403 73.8922 6.95268 73.8922 7.21883C73.8922 7.38547 73.8748 7.53463 73.8451 7.6664C73.8128 7.79827 73.7482 7.91517 73.6539 8.01457L66.6159 18.3747C66.4992 18.5463 66.5017 18.77 66.6209 18.9392L74.4212 30.0975C74.5181 30.2293 74.5801 30.3636 74.6124 30.4954C74.6448 30.6273 74.6596 30.744 74.6596 30.8435C74.6596 31.142 74.5479 31.4081 74.3244 31.6394C74.1008 31.8707 73.8451 31.9874 73.557 31.9874H65.8934C65.4786 31.9874 65.1756 31.888 64.9844 31.689C64.7932 31.4901 64.6317 31.3086 64.5051 31.142L60.9886 25.9544C60.7924 25.671 60.3753 25.6685 60.1766 25.9471L56.4118 31.1395C56.3149 31.3061 56.1634 31.4876 55.9573 31.6865C55.7488 31.8855 55.4383 31.9851 55.0236 31.9851H47.5486Z"/>
  </g>
</svg>
