<?xml version="1.0" encoding="UTF-8"?>
<svg xmlns="http://www.w3.org/2000/svg" width="980" height="540" viewBox="0 0 980 540" role="img" aria-labelledby="title desc">
  <title id="title">portcap multi-HCA 2GiB foreground bandwidth</title>
  <desc id="desc">p50 bandwidth_GBps by target profile and background share; all rows are single logical foreground flows, not manual shards.</desc>
  <style>
    .title { font: 700 18px "Segoe UI", Arial, sans-serif; fill: #1F2430; }
    .subtitle { font: 400 12px "Segoe UI", Arial, sans-serif; fill: #6F768A; }
    .tick { font: 400 11px "Consolas", "Segoe UI", monospace; fill: #6F768A; }
    .axis-label { font: 600 12px "Segoe UI", Arial, sans-serif; fill: #1F2430; }
    .legend { font: 500 12px "Segoe UI", Arial, sans-serif; fill: #1F2430; }
  </style>
  <rect width="980" height="540" fill="#FCFCFD" />
  <rect x="92" y="118" width="836" height="344" fill="#FFFFFF" />
  <text x="92" y="24" class="title">portcap multi-HCA 2GiB foreground bandwidth</text>
  <text x="92" y="38" class="subtitle">p50 bandwidth_GBps by target profile and background share; all rows are single logical foreground flows, not manual shards.</text>
  <line x1="92" x2="120" y1="78" y2="78" stroke="#2E4780" stroke-width="2.2"  />
<circle cx="106" cy="78" r="4.2" fill="#A3BEFA" stroke="#2E4780" stroke-width="1" />
<text x="128" y="82" class="legend">2x100</text>
<line x1="176.5" x2="204.5" y1="78" y2="78" stroke="#736422" stroke-width="2.2" stroke-dasharray="7 4" />
<circle cx="190.5" cy="78" r="4.2" fill="#FFE15B" stroke="#736422" stroke-width="1" />
<text x="212.5" y="82" class="legend">4x50</text>
<line x1="253.7" x2="281.7" y1="78" y2="78" stroke="#804126" stroke-width="2.2" stroke-dasharray="2 4" />
<circle cx="267.7" cy="78" r="4.2" fill="#F0986E" stroke="#804126" stroke-width="1" />
<text x="289.7" y="82" class="legend">4x100</text>
<line x1="338.2" x2="366.2" y1="78" y2="78" stroke="#386411" stroke-width="2.2" stroke-dasharray="9 3 2 3" />
<circle cx="352.2" cy="78" r="4.2" fill="#A3D576" stroke="#386411" stroke-width="1" />
<text x="374.2" y="82" class="legend">2x200</text>
  <line x1="92" x2="928" y1="462" y2="462" stroke="#E6E8F0" stroke-width="1" />
<text x="80" y="466" text-anchor="end" class="tick">0.0</text>
<line x1="92" x2="928" y1="340.8539799464286" y2="340.8539799464286" stroke="#E6E8F0" stroke-width="1" />
<text x="80" y="344.8539799464286" text-anchor="end" class="tick">10</text>
<line x1="92" x2="928" y1="219.7079598928572" y2="219.7079598928572" stroke="#E6E8F0" stroke-width="1" />
<text x="80" y="223.7079598928572" text-anchor="end" class="tick">20</text>
<line x1="92" x2="928" y1="98.56193983928574" y2="98.56193983928574" stroke="#E6E8F0" stroke-width="1" />
<text x="80" y="102.56193983928574" text-anchor="end" class="tick">30</text>
  <line x1="92" x2="92" y1="118" y2="462" stroke="#D7DBE7" stroke-width="1.2" />
  <line x1="92" x2="928" y1="462" y2="462" stroke="#D7DBE7" stroke-width="1.2" />
  <line x1="92" x2="92" y1="462" y2="468" stroke="#D7DBE7" />
<text x="92" y="490" text-anchor="middle" class="tick">bg1</text>
<line x1="370.6666666666667" x2="370.6666666666667" y1="462" y2="468" stroke="#D7DBE7" />
<text x="370.6666666666667" y="490" text-anchor="middle" class="tick">bg10</text>
<line x1="649.3333333333334" x2="649.3333333333334" y1="462" y2="468" stroke="#D7DBE7" />
<text x="649.3333333333334" y="490" text-anchor="middle" class="tick">bg50</text>
<line x1="928" x2="928" y1="462" y2="468" stroke="#D7DBE7" />
<text x="928" y="490" text-anchor="middle" class="tick">bg90</text>
  <text x="18" y="290" class="axis-label" transform="rotate(-90 18 290)" text-anchor="middle">bandwidth_GBps_p50</text>
  <path d="M 92.00 225.76 L 370.67 236.41 L 649.33 321.02 L 928.00 433.80" fill="none" stroke="#2E4780" stroke-width="2.2"  />
<circle cx="92.00" cy="225.76" r="4.5" fill="#A3BEFA" stroke="#2E4780" stroke-width="1.2"><title>2x100 bg1: 19.500</title></circle>
<circle cx="370.67" cy="236.41" r="4.5" fill="#A3BEFA" stroke="#2E4780" stroke-width="1.2"><title>2x100 bg10: 18.622</title></circle>
<circle cx="649.33" cy="321.02" r="4.5" fill="#A3BEFA" stroke="#2E4780" stroke-width="1.2"><title>2x100 bg50: 11.638</title></circle>
<circle cx="928.00" cy="433.80" r="4.5" fill="#A3BEFA" stroke="#2E4780" stroke-width="1.2"><title>2x100 bg90: 2.328</title></circle>
<path d="M 92.00 274.86 L 370.67 290.50 L 649.33 341.85 L 928.00 433.80" fill="none" stroke="#736422" stroke-width="2.2" stroke-dasharray="7 4" />
<circle cx="92.00" cy="274.86" r="4.5" fill="#FFE15B" stroke="#736422" stroke-width="1.2"><title>4x50 bg1: 15.448</title></circle>
<circle cx="370.67" cy="290.50" r="4.5" fill="#FFE15B" stroke="#736422" stroke-width="1.2"><title>4x50 bg10: 14.156</title></circle>
<circle cx="649.33" cy="341.85" r="4.5" fill="#FFE15B" stroke="#736422" stroke-width="1.2"><title>4x50 bg50: 9.918</title></circle>
<circle cx="928.00" cy="433.80" r="4.5" fill="#FFE15B" stroke="#736422" stroke-width="1.2"><title>4x50 bg90: 2.328</title></circle>
<path d="M 92.00 256.32 L 370.67 276.45 L 649.33 322.23 L 928.00 405.60" fill="none" stroke="#804126" stroke-width="2.2" stroke-dasharray="2 4" />
<circle cx="92.00" cy="256.32" r="4.5" fill="#F0986E" stroke="#804126" stroke-width="1.2"><title>4x100 bg1: 16.978</title></circle>
<circle cx="370.67" cy="276.45" r="4.5" fill="#F0986E" stroke="#804126" stroke-width="1.2"><title>4x100 bg10: 15.316</title></circle>
<circle cx="649.33" cy="322.23" r="4.5" fill="#F0986E" stroke="#804126" stroke-width="1.2"><title>4x100 bg50: 11.538</title></circle>
<circle cx="928.00" cy="405.60" r="4.5" fill="#F0986E" stroke="#804126" stroke-width="1.2"><title>4x100 bg90: 4.656</title></circle>
<path d="M 92.00 154.86 L 370.67 198.77 L 649.33 272.84 L 928.00 405.60" fill="none" stroke="#386411" stroke-width="2.2" stroke-dasharray="9 3 2 3" />
<circle cx="92.00" cy="154.86" r="4.5" fill="#A3D576" stroke="#386411" stroke-width="1.2"><title>2x200 bg1: 25.353</title></circle>
<circle cx="370.67" cy="198.77" r="4.5" fill="#A3D576" stroke="#386411" stroke-width="1.2"><title>2x200 bg10: 21.728</title></circle>
<circle cx="649.33" cy="272.84" r="4.5" fill="#A3D576" stroke="#386411" stroke-width="1.2"><title>2x200 bg50: 15.614</title></circle>
<circle cx="928.00" cy="405.60" r="4.5" fill="#A3D576" stroke="#386411" stroke-width="1.2"><title>2x200 bg90: 4.656</title></circle>
</svg>
